<svg width="23" height="24" viewBox="0 0 23 24" fill="none" xmlns="http://www.w3.org/2000/svg">
<path d="M20.3561 20.6065L17.1398 17.2458L17.0644 17.1233C16.9242 16.9742 16.7326 16.8902 16.5325 16.8902C16.3325 16.8902 16.1409 16.9742 16.0007 17.1233C13.2673 19.8033 9.05557 19.949 6.15859 17.4637C3.26162 14.9784 2.5784 10.6334 4.56204 7.31017C6.54568 3.98697 10.5806 2.71685 13.991 4.34214C17.4013 5.96743 19.1287 9.98379 18.0276 13.7276C17.9483 13.9981 18.0131 14.2922 18.1976 14.4992C18.3822 14.7062 18.6583 14.7946 18.9221 14.7311C19.1859 14.6676 19.3973 14.4619 19.4766 14.1914C20.7929 9.74864 18.8049 4.96755 14.7987 2.94106C10.7925 0.914562 5.97037 2.25082 3.45174 6.08542C0.933111 9.92001 1.47384 15.1021 4.72414 18.2795C7.97443 21.4569 12.9589 21.6759 16.453 18.7949L19.3007 21.7705C19.5948 22.0765 20.0703 22.0765 20.3644 21.7705C20.6582 21.4602 20.6582 20.9606 20.3644 20.6503L20.3561 20.6065Z" fill="#3C3A36"/>
</svg>
